# xmcd
#
# Track frame offsets:
#	150
#	17165
#	33977
#	47492
#	62987
#	82635
#	95527
#	109446
#	123909
#	139915
#	153898
#
# Disc length: 2278 seconds
#
# Revision: 1
# Processed by: cddbd v1.5.2PL0 Copyright (c) Steve Scherf et al.
# Submitted via: audiograbber 1.80
#
DISCID=8708e40b
DTITLE=God Made Me Funky - Enter The Beat
DYEAR=1900
DGENRE=
TTITLE0=Revolushun
TTITLE1=Bringin' It Back
TTITLE2=Enter The Beat
TTITLE3=We All Fall Down
TTITLE4=ComeOnUpToGetDown
TTITLE5=2 Times
TTITLE6=Gett'er Done
TTITLE7=UKnowUWanna
TTITLE8=Too Shy
TTITLE9=Delancy - Fet. D.O
TTITLE10=Luv T'Day (Reprise)
EXTD=
EXTT0=
EXTT1=
EXTT2=
EXTT3=
EXTT4=
EXTT5=
EXTT6=
EXTT7=
EXTT8=
EXTT9=
EXTT10=
PLAYORDER=
